HIERARCHY
ROOT Hips
{
	OFFSET 0.00000 0.00000 0.00000
	CHANNELS 6 Xposition Yposition Zposition Zrotation Yrotation Xrotation 
	JOINT LHipJoint
	{
		OFFSET 0 0 0
		CHANNELS 3 Zrotation Yrotation Xrotation
		JOINT LeftHip
		{
			OFFSET 1.56857 -1.73443 1.15205
			CHANNELS 3 Zrotation Yrotation Xrotation
			JOINT LeftKnee
			{
				OFFSET 2.39362 -6.57643 0.00000
				CHANNELS 3 Zrotation Yrotation Xrotation
				JOINT LeftAnkle
				{
					OFFSET 2.50952 -6.89485 0.00000
					CHANNELS 3 Zrotation Yrotation Xrotation
					JOINT LeftToe
					{
						OFFSET 0.17171 -0.47178 1.88682
						CHANNELS 3 Zrotation Yrotation Xrotation
						End Site
						{
							OFFSET 0.00000 -0.00000 0.98146
						}
					}
				}
			}
		}
	}
	JOINT RHipJoint
	{
		OFFSET 0 0 0
		CHANNELS 3 Zrotation Yrotation Xrotation
		JOINT RightHip
		{
			OFFSET -1.28153 -1.73443 1.15205
			CHANNELS 3 Zrotation Yrotation Xrotation
			JOINT RightKnee
			{
				OFFSET -2.26861 -6.23296 0.00000
				CHANNELS 3 Zrotation Yrotation Xrotation
				JOINT RightAnkle
				{
					OFFSET -2.54143 -6.98254 0.00000
					CHANNELS 3 Zrotation Yrotation Xrotation
					JOINT RightToe
					{
						OFFSET -0.23309 -0.64041 1.93119
						CHANNELS 3 Zrotation Yrotation Xrotation
						End Site
						{
							OFFSET -0.00000 -0.00000 1.02013
						}
					}
				}
			}
		}
	}
	JOINT lowerback
	{
		OFFSET 0 0 0
		CHANNELS 3 Zrotation Yrotation Xrotation
		JOINT Chest
		{
			OFFSET -0.07096 2.10460 -0.27878
			CHANNELS 3 Zrotation Yrotation Xrotation
			JOINT Chest2
			{
				OFFSET -0.00826 2.13662 -0.08279
				CHANNELS 3 Zrotation Yrotation Xrotation
				JOINT lowerneck
				{
					OFFSET 0 0 0
					CHANNELS 3 Zrotation Yrotation Xrotation
					JOINT Neck
					{
						OFFSET 0.03239 1.77799 0.24435
						CHANNELS 3 Zrotation Yrotation Xrotation
						JOINT Head
						{
							OFFSET 0.01026 1.74194 -0.49664
							CHANNELS 3 Zrotation Yrotation Xrotation
							End Site
							{
								OFFSET 0.00170 1.83057 -0.19653
							}
						}
					}
				}
				JOINT LeftCollar
				{
					OFFSET 0 0 0
					CHANNELS 3 Zrotation Yrotation Xrotation
					JOINT LeftShoulder
					{
						OFFSET 3.19178 1.35907 -0.31412
CHANNELS 3 Zrotation Xrotation Yrotation
						JOINT LeftElbow
						{
OFFSET 0 -4.852470 -0.000000
CHANNELS 3 Zrotation Xrotation Yrotation
							JOINT LeftWrist
							{
OFFSET 0 -3.555840 0.000000
CHANNELS 3 Zrotation Xrotation Yrotation
								JOINT lhand
								{
									OFFSET 0 0 0
CHANNELS 3 Zrotation Xrotation Yrotation
									JOINT LFingers
									{
OFFSET 0 -0.693200 0.000000
CHANNELS 3 Zrotation Xrotation Yrotation
										End Site
										{
OFFSET 0 -0.558880 0.000000
										}
									}
								}
								JOINT LThumb
								{
OFFSET 0 0.000000 0.000000
CHANNELS 3 Zrotation Xrotation Yrotation
									End Site
									{
OFFSET 0 -0.567410 0.567410
									}
								}
							}
						}
					}
				}
				JOINT RightCollar
				{
					OFFSET 0 0 0
					CHANNELS 3 Zrotation Yrotation Xrotation
					JOINT RightShoulder
					{
						OFFSET -3.28999 1.24191 -0.26899
CHANNELS 3 Zrotation Xrotation Yrotation
						JOINT RightElbow
						{
OFFSET 0 -4.644620 0.000000
CHANNELS 3 Zrotation Xrotation Yrotation
							JOINT RightWrist
							{
OFFSET 0 -3.407030 0.000000
CHANNELS 3 Zrotation Xrotation Yrotation
								JOINT rhand
								{
									OFFSET 0 0 0
CHANNELS 3 Zrotation Xrotation Yrotation
									JOINT RFingers
									{
OFFSET 0 -0.619580 0.000000
CHANNELS 3 Zrotation Xrotation Yrotation
										End Site
										{
OFFSET 0 -0.499520 0.000000
										}
									}
								}
								JOINT RThumb
								{
OFFSET 0 0.000000 0.000000
CHANNELS 3 Zrotation Xrotation Yrotation
									End Site
									{
OFFSET 0 -0.507150 0.507150
									}
								}
							}
						}
					}
				}
			}
		}
	}
}
MOTION
Frames: 8
Frame Time: 0.008333333333333333
16.586391 16.745669 0.417015 609.719092 88.335039 605.447252 0.000000 0.000000 0.000000 -14.762295 5.558039 6.933638 8.720504 16.622103 55.114776 0.001357 1.924235 1.456088 0.002445 -0.319200 -0.877148 0.000000 0.000000 0.000000 22.934848 4.322467 -8.742160 -1.522423 -7.790460 22.079688 -0.616315 0.371973 -14.710792 -0.647017 -5.144795 14.322071 0.377593 -0.065116 8.831079 2.088401 0.097818 2.856075 1.933383 0.086014 -1.994843 3.846005 2.671048 -23.495481 -2.186879 2.993621 21.360633 -0.942782 1.429005 10.869021 0.000000 0.000000 0.000000 1.913788 1.053874 -35.305872 11.868006 -19.604541 2.059122 13.225124 12.171788 25.462663 0.000000 0.000000 0.000000 -7.125000 0.000000 0.000000 -9.970618 4.247403 -9.349404 0.000000 0.000000 0.000000 -5.442210 4.614990 28.887472 -14.484199 -23.422606 -3.017917 -9.224691 15.041212 31.908518 0.000000 0.000000 0.000000 7.125000 0.000000 0.000000 26.259225 60.262654 -10.190007
16.825017 16.792324 0.430279 621.256204 87.541627 616.877908 0.000000 0.000000 0.000000 -13.658798 5.201029 4.399136 9.432835 17.076673 57.573030 -0.004218 2.004660 1.011942 0.006450 0.242312 0.666045 0.000000 0.000000 0.000000 24.083275 3.548653 -7.170519 -1.373739 -7.416079 20.954539 -0.655091 0.848639 -15.025070 -0.689133 -5.306995 14.786355 1.396604 0.080988 8.964865 2.222768 0.393825 2.894205 1.467603 0.237319 -2.033580 3.833872 2.445676 -23.439594 -2.217626 2.698346 21.448906 -1.000143 1.291771 10.881513 0.000000 0.000000 0.000000 1.744247 1.518147 -32.890688 10.741176 -17.889036 1.696736 10.805314 18.031874 25.338370 0.000000 0.000000 0.000000 -7.125000 0.000000 0.000000 -11.429395 4.672549 -10.679976 0.000000 0.000000 0.000000 -5.598352 3.242490 29.562836 -14.839094 -23.921159 -3.160615 -9.848456 14.831675 31.494270 0.000000 0.000000 0.000000 7.125000 0.000000 0.000000 25.255715 60.040413 -9.634757
17.062687 16.840207 0.441966 619.093576 87.463527 614.597391 0.000000 0.000000 0.000000 -13.612826 4.634108 1.887599 10.097543 17.463400 59.812685 -0.011819 2.146206 0.192406 0.021588 0.949140 2.608808 0.000000 0.000000 0.000000 24.121687 2.445538 -5.667778 -1.222773 -7.012821 19.753614 -0.676297 1.337390 -15.137455 -0.711864 -5.392037 15.030164 1.562784 0.224395 9.117328 2.157370 0.602103 2.876547 1.283758 0.341072 -2.136842 3.597494 2.245626 -23.482250 -1.964339 2.442212 21.649599 -0.910226 1.190207 10.948182 0.000000 0.000000 0.000000 1.615033 2.224407 -30.186049 9.839922 -16.488158 1.429637 8.854177 23.469541 25.523177 0.000000 0.000000 0.000000 -7.125000 0.000000 0.000000 -12.612238 4.711083 -11.830321 0.000000 0.000000 0.000000 -5.828087 2.023731 30.261579 -15.296474 -24.557202 -3.348282 -10.465701 14.557985 31.546749 0.000000 0.000000 0.000000 7.125000 0.000000 0.000000 24.663530 60.231852 -9.504894
17.294906 16.890107 0.451242 625.149307 87.404464 620.607648 0.000000 0.000000 0.000000 -13.432214 4.420052 -0.793161 10.650702 17.759147 61.640933 -0.010812 1.893234 -0.226497 0.024384 0.948529 2.607628 0.000000 0.000000 0.000000 24.285285 1.785436 -4.212245 -1.098675 -6.659341 18.710407 -0.684571 1.762364 -15.129174 -0.619816 -5.034623 14.008078 1.786704 0.486625 9.118005 2.091216 0.967687 2.883884 1.050090 0.523125 -2.129005 3.168034 1.955206 -22.951971 -1.439099 2.067677 21.369267 -0.711545 1.054320 10.723369 0.000000 0.000000 0.000000 1.435111 2.804313 -26.792055 9.086008 -15.296595 1.223517 7.193457 29.343841 25.483860 0.000000 0.000000 0.000000 -7.125000 0.000000 0.000000 -13.608248 4.920748 -12.764172 0.000000 0.000000 0.000000 -6.085054 0.850858 30.991204 -15.845790 -25.310631 -3.580105 -10.973228 14.221171 31.699117 0.000000 0.000000 0.000000 7.125000 0.000000 0.000000 24.268130 60.488560 -9.491097
17.529694 16.938522 0.462319 630.409190 87.431594 625.720162 0.000000 0.000000 0.000000 -13.316833 4.182106 -3.145507 11.006508 17.938201 62.802536 -0.001476 0.951990 -1.027888 0.029802 1.110157 3.052010 0.000000 0.000000 0.000000 24.331178 1.077459 -2.576810 -0.964876 -6.253517 17.521922 -0.711275 2.188485 -15.338375 -0.494141 -4.505893 12.504604 1.848529 0.732693 9.200526 1.990230 1.299086 2.980768 0.874957 0.689772 -2.072445 3.272571 1.787967 -22.713817 -1.553725 1.836282 21.265718 -0.807876 0.944491 10.637653 0.000000 0.000000 0.000000 1.422757 3.255948 -23.317738 8.352407 -14.122269 1.036687 6.226887 35.045591 25.762225 0.000000 0.000000 0.000000 -7.125000 0.000000 0.000000 -14.189569 4.744240 -13.393461 0.000000 0.000000 0.000000 -6.298903 -0.519127 31.566389 -16.304896 -25.932232 -3.778392 -11.780861 14.198716 31.513646 0.000000 0.000000 0.000000 7.125000 0.000000 0.000000 23.266926 60.512360 -9.087175
17.761046 16.980027 0.475703 636.240446 87.558870 631.365756 0.000000 0.000000 0.000000 -13.340893 3.955883 -5.383034 11.185873 18.024773 63.383615 0.008037 0.224706 -1.784915 0.064657 1.623008 4.465247 0.000000 0.000000 0.000000 24.242955 0.431554 -0.961624 -0.855208 -5.896612 16.485000 -0.743335 2.602095 -15.613173 -0.400263 -4.061670 11.250213 1.762070 0.964705 9.397616 1.812124 1.598892 3.029573 0.703682 0.839042 -2.128448 3.344212 1.716174 -22.952882 -1.562874 1.715662 21.679023 -0.841233 0.897686 10.831659 0.000000 0.000000 0.000000 1.664434 4.173112 -20.998381 8.041177 -13.619649 0.961813 5.748728 38.395165 25.727841 0.000000 0.000000 0.000000 -7.125000 0.000000 0.000000 -14.474494 4.821509 -13.658434 0.000000 0.000000 0.000000 -6.455085 -1.863406 32.151685 -16.690088 -26.447037 -3.948511 -12.892918 14.054470 30.961775 0.000000 0.000000 0.000000 7.125000 0.000000 0.000000 21.643209 60.270505 -8.290655
17.992151 17.015328 0.493316 644.616639 87.003798 639.555676 0.000000 0.000000 0.000000 -12.499624 4.044369 -7.712030 11.298000 18.077876 63.745697 0.020338 -0.472181 -2.569228 0.067212 1.672544 4.601460 0.000000 0.000000 0.000000 24.964661 0.051972 0.672622 -0.761518 -5.572769 15.549695 -0.767801 2.963610 -15.816273 -0.409693 -4.108765 11.382787 2.259285 1.244348 9.704104 1.806994 2.028886 2.963137 0.363598 1.051474 -2.348729 3.187222 1.462798 -22.540096 -1.264233 1.359720 21.688693 -0.764387 0.765425 10.745414 0.000000 0.000000 0.000000 1.925317 5.347559 -19.509171 7.984341 -13.527380 0.948427 4.594255 40.391683 25.094060 0.000000 0.000000 0.000000 -7.125000 0.000000 0.000000 -15.160857 5.536042 -14.143337 0.000000 0.000000 0.000000 -6.662038 -2.982929 32.833942 -17.180177 -27.094659 -4.169112 -13.314039 13.380172 31.081674 0.000000 0.000000 0.000000 7.125000 0.000000 0.000000 21.296197 60.480738 -8.257727
18.229474 17.043455 0.494842 651.754336 86.611444 646.599107 0.000000 0.000000 0.000000 -12.088550 4.083139 -9.908290 11.198744 18.030854 63.425199 0.038307 -0.844850 -3.488502 0.022958 0.975459 2.681333 0.000000 0.000000 0.000000 25.182396 -0.729989 2.065551 -0.671900 -5.240079 14.594838 -0.771465 3.755448 -15.752052 -0.379623 -3.957001 10.955627 2.697546 1.526960 9.647529 1.707845 2.439732 3.093711 -0.025997 1.260473 -2.155381 2.988484 1.216609 -22.602469 -0.945883 0.999208 21.722780 -0.672769 0.625686 10.757769 0.000000 0.000000 0.000000 2.133264 6.095860 -17.198998 7.849096 -13.307974 0.917083 4.525386 42.722551 25.157433 0.000000 0.000000 0.000000 -7.125000 0.000000 0.000000 -15.201706 5.480742 -14.201015 0.000000 0.000000 0.000000 -6.830509 -4.552569 33.229885 -17.626131 -27.675387 -4.374436 -13.327901 12.588565 31.487164 0.000000 0.000000 0.000000 7.125000 0.000000 0.000000 21.616244 60.857455 -8.584788
